# xmcd
#
# Track frame offsets:
#	150
#	17234
#	30467
#	47018
#	65367
#	88553
#	99659
#	117341
#	133352
#	145543
#	164757
#	178440
#	190911
#	202677
#	215589
#	237496
#	250996
#	271132
#	286792
#	304762
#	324178
#
# Disc length: 4496 seconds
#
# Revision: 1
# Processed by: cddbd v1.5PL3 Copyright (c) Steve Scherf et al.
# Submitted via: audiograbber 1.82.02
#
DISCID=33118e15
DTITLE=Various Artist - In The Mood For The Blues - CD 2
DYEAR=2004
DGENRE=Blues
TTITLE0=Dire Straits - Fade To Black
TTITLE1=Fleetwood Mac - Shake Your Moneymaker
TTITLE2=Stevie Ray Vaughan - Pride And Joy
TTITLE3=ZZ Top - My Head Is In Mississippi
TTITLE4=Lynyrd Skynyrd - Call Me The Breeze
TTITLE5=Robert Palmer - Mama Talk To Your Daughter
TTITLE6=John Mayall and The Bluesbreakers - Greeny
TTITLE7=B. B. King - Ain't Nobody Home
TTITLE8=John Lee Hooker - Boom Boom
TTITLE9=The Taste - Leavin' Blues
TTITLE10=Juicy Lucy - Who Do You Love
TTITLE11=Bo Diddley - Road Runner
TTITLE12=Etta James - I'd Rather Go Blind
TTITLE13=Muddy Waters - Hoochie Coochie Man
TTITLE14=Paul Rodgers - Muddy Water Blues
TTITLE15=Jim Croce - You Don't Mess Around With Jim
TTITLE16=Peter Green - Loser Two Times
TTITLE17=Free - I'll Be Creepin
TTITLE18=Joe Walsh - Turn To Stone
TTITLE19=John Stewart - Gold
TTITLE20=J. J. Cale - Cocaine
EXTD=
EXTT0=
EXTT1=
EXTT2=
EXTT3=
EXTT4=
EXTT5=
EXTT6=
EXTT7=
EXTT8=
EXTT9=
EXTT10=
EXTT11=
EXTT12=
EXTT13=
EXTT14=
EXTT15=
EXTT16=
EXTT17=
EXTT18=
EXTT19=
EXTT20=
PLAYORDER=
